<?xml version="1.0" encoding="UTF-8"?>
<!DOCTYPE svg PUBLIC "-//W3C//DTD SVG 1.1//EN" "http://www.w3.org/Graphics/SVG/1.1/DTD/svg11.dtd">
<svg xmlns="http://www.w3.org/2000/svg" version="1.1" width="100px" height="92px" style="shape-rendering:geometricPrecision; text-rendering:geometricPrecision; image-rendering:optimizeQuality; fill-rule:evenodd; clip-rule:evenodd" xmlns:xlink="http://www.w3.org/1999/xlink">
<g><path style="opacity:0.91" fill="#e4007e" d="M 46.5,-0.5 C 50.5,-0.5 54.5,-0.5 58.5,-0.5C 81.8556,3.52226 95.5223,17.1889 99.5,40.5C 99.5,43.5 99.5,46.5 99.5,49.5C 96.8109,67.6495 86.8109,80.1495 69.5,87C 63.4468,88.8467 57.4468,90.3467 51.5,91.5C 48.5,91.5 45.5,91.5 42.5,91.5C 42.4701,90.5028 42.9701,89.8361 44,89.5C 61.6023,85.8822 74.6023,76.2155 83,60.5C 89.4114,42.1185 85.9114,25.9518 72.5,12C 65.6212,7.15115 57.9546,4.48449 49.5,4C 47.8588,2.87099 46.8588,1.37099 46.5,-0.5 Z"/></g>
<g><path style="opacity:0.934" fill="#e4007e" d="M -0.5,57.5 C -0.5,53.5 -0.5,49.5 -0.5,45.5C 4.3973,22.6025 18.3973,8.60254 41.5,3.5C 46.8726,6.20589 50.3726,10.5392 52,16.5C 58.5644,42.4784 51.0644,63.3118 29.5,79C 24.9196,81.5474 20.2529,81.8807 15.5,80C 13.9617,78.0679 12.795,75.9012 12,73.5C 9.50152,71.583 6.83486,69.9164 4,68.5C 1.87915,64.9469 0.37915,61.2803 -0.5,57.5 Z M 33.5,17.5 C 34.1665,22.0166 34.8331,26.6833 35.5,31.5C 39.1667,33 42.8333,34.5 46.5,36C 42.9761,39.0246 39.3094,41.8579 35.5,44.5C 34.6701,50.1376 34.1701,55.8042 34,61.5C 31.7226,58.6009 29.2226,55.9342 26.5,53.5C 23.4544,56.3851 20.9544,59.7184 19,63.5C 18.8199,59.0764 18.6532,54.7431 18.5,50.5C 15.8233,49.9258 13.1566,49.2592 10.5,48.5C 13.7563,45.4154 16.423,41.9154 18.5,38C 17.4951,34.9712 16.4951,31.9712 15.5,29C 18.4726,28.617 21.306,29.117 24,30.5C 27.7712,26.569 30.9379,22.2357 33.5,17.5 Z"/></g>
</svg>
